<svg width="734" height="640" viewBox="0 0 734 640" fill="none" xmlns="http://www.w3.org/2000/svg" xmlns:xlink="http://www.w3.org/1999/xlink">
<rect width="734" height="640" fill="url(#pattern0)"/>
<defs>
<pattern id="pattern0" patternContentUnits="objectBoundingBox" width="1" height="1">
<use xlink:href="#image0_1_86" transform="translate(-0.00408719) scale(0.0013624 0.0015625)"/>
</pattern>
<image id="image0_1_86" width="740" height="640" xlink:href="img/home.png"/>
</defs>
<path d="M222 527L442.8 535L512 521.3V543L443.5 562.7L222 551.7V527Z" fill="#3595F6" fill-opacity="0.75"/>
<path d="M223 527V502L443.3 505.3L513 502V522L443.7 535L223 527Z" fill="#3595F6" fill-opacity="0.75"/>
<path d="M223 503V478H444H513V501L445 508L223 503Z" fill="#3595F6" fill-opacity="0.75"/>
<path d="M223 478V453L444.3 449.3L512 456V478H444" fill="#3595F6" fill-opacity="0.75"/>
<path d="M223 453V427L444.5 423.7L513 434.7V456L444 449.3L223 453Z" fill="#3595F6" fill-opacity="0.75"/>
<path d="M222 428V404.3L443 392L514 415V436.3L443 424L222 428Z" fill="#3595F6" fill-opacity="0.75"/>
<path d="M222 407V382L444.2 365.7L514 394.3V415L443.7 393.3L222 407Z" fill="#3595F6" fill-opacity="0.75"/>
<path d="M222 383V358L444.5 337.7L514 374.3V395L442 366.3L222 383Z" fill="#3595F6" fill-opacity="0.75"/>
<path d="M222 359V335L445 310.3L514 354.3V376L444.7 338L222 359Z" fill="#3595F6" fill-opacity="0.75"/>
<path d="M222 335V311L444.5 282.3L514 333.3V354L443.7 311.7L222 335Z" fill="#3595F6" fill-opacity="0.75"/>
<path d="M221 311V287L443.3 254L514 313.3V333L444 282.3L221 311Z" fill="#3595F6" fill-opacity="0.75"/>
<path d="M222 287V263L443.2 228L513 292V313L444.3 254.7L222 287Z" fill="#3595F6" fill-opacity="0.75"/>
<path d="M222 265V240L444.3 202L513 272.3V293L444 229L222 265Z" fill="#3595F6" fill-opacity="0.75"/>
<path d="M222 242V217L442.8 173.3L513 252.3V275L444 201.7L222 242Z" fill="#3595F6" fill-opacity="0.75"/>
<path d="M223 218V193L443 145L513 230V253L442.3 173.7L223 218Z" fill="#3595F6" fill-opacity="0.75"/>
<path d="M222 193V168L441.8 116L513 208.3V231L443.3 144.7L222 193Z" fill="#3595F6" fill-opacity="0.75"/>
<path d="M222 169V143L444 86.3L513 188V209L443.7 117.3L222 169Z" fill="#3595F6" fill-opacity="0.75"/>

</svg>
